<mxfile host="app.diagrams.net" modified="2023-06-06T10:38:03.562Z" agent="Mozilla/5.0 (Windows NT 10.0; Win64; x64) AppleWebKit/537.36 (KHTML, like Gecko) Chrome/114.0.0.0 Safari/537.36" etag="jQ1I7ZZUQwuMGxP9ci57" version="21.3.7" type="github">
  <diagram name="第 1 页" id="Tjehzajrp_gPXRmR5Vja">
    <mxGraphModel dx="1290" dy="541" grid="1" gridSize="10" guides="1" tooltips="1" connect="1" arrows="1" fold="1" page="1" pageScale="1" pageWidth="827" pageHeight="1169" math="0" shadow="0">
      <root>
        <mxCell id="0" />
        <mxCell id="1" parent="0" />
        <mxCell id="qFURexR1lP0LFmoi_BA6-4" style="edgeStyle=orthogonalEdgeStyle;rounded=0;orthogonalLoop=1;jettySize=auto;html=1;exitX=1;exitY=0.5;exitDx=0;exitDy=0;entryX=0;entryY=0.5;entryDx=0;entryDy=0;" edge="1" parent="1" source="qFURexR1lP0LFmoi_BA6-1" target="qFURexR1lP0LFmoi_BA6-2">
          <mxGeometry relative="1" as="geometry" />
        </mxCell>
        <mxCell id="qFURexR1lP0LFmoi_BA6-1" value="" style="ellipse;whiteSpace=wrap;html=1;aspect=fixed;" vertex="1" parent="1">
          <mxGeometry x="60" y="410" width="30" height="30" as="geometry" />
        </mxCell>
        <mxCell id="qFURexR1lP0LFmoi_BA6-8" style="edgeStyle=orthogonalEdgeStyle;rounded=0;orthogonalLoop=1;jettySize=auto;html=1;exitX=1;exitY=0.5;exitDx=0;exitDy=0;" edge="1" parent="1" source="qFURexR1lP0LFmoi_BA6-2" target="qFURexR1lP0LFmoi_BA6-5">
          <mxGeometry relative="1" as="geometry" />
        </mxCell>
        <mxCell id="qFURexR1lP0LFmoi_BA6-2" value="&lt;font style=&quot;font-size: 14px;&quot;&gt;管理员登录系统&lt;/font&gt;" style="rounded=1;whiteSpace=wrap;html=1;" vertex="1" parent="1">
          <mxGeometry x="140" y="400" width="80" height="50" as="geometry" />
        </mxCell>
        <mxCell id="qFURexR1lP0LFmoi_BA6-9" style="edgeStyle=orthogonalEdgeStyle;rounded=0;orthogonalLoop=1;jettySize=auto;html=1;exitX=1;exitY=0.5;exitDx=0;exitDy=0;entryX=0;entryY=0.5;entryDx=0;entryDy=0;" edge="1" parent="1" source="qFURexR1lP0LFmoi_BA6-5" target="qFURexR1lP0LFmoi_BA6-6">
          <mxGeometry relative="1" as="geometry" />
        </mxCell>
        <mxCell id="qFURexR1lP0LFmoi_BA6-5" value="&lt;font style=&quot;font-size: 14px;&quot;&gt;填写公告信息&lt;/font&gt;" style="rounded=1;whiteSpace=wrap;html=1;" vertex="1" parent="1">
          <mxGeometry x="270" y="400" width="90" height="50" as="geometry" />
        </mxCell>
        <mxCell id="qFURexR1lP0LFmoi_BA6-10" style="edgeStyle=orthogonalEdgeStyle;rounded=0;orthogonalLoop=1;jettySize=auto;html=1;entryX=0;entryY=0.5;entryDx=0;entryDy=0;" edge="1" parent="1" source="qFURexR1lP0LFmoi_BA6-6" target="qFURexR1lP0LFmoi_BA6-7">
          <mxGeometry relative="1" as="geometry" />
        </mxCell>
        <mxCell id="qFURexR1lP0LFmoi_BA6-6" value="&lt;font style=&quot;font-size: 14px;&quot;&gt;选择推送对象&lt;/font&gt;" style="rounded=1;whiteSpace=wrap;html=1;" vertex="1" parent="1">
          <mxGeometry x="410" y="400" width="70" height="50" as="geometry" />
        </mxCell>
        <mxCell id="qFURexR1lP0LFmoi_BA6-12" style="edgeStyle=orthogonalEdgeStyle;rounded=0;orthogonalLoop=1;jettySize=auto;html=1;exitX=1;exitY=0.5;exitDx=0;exitDy=0;entryX=0;entryY=0.5;entryDx=0;entryDy=0;" edge="1" parent="1" source="qFURexR1lP0LFmoi_BA6-7" target="qFURexR1lP0LFmoi_BA6-11">
          <mxGeometry relative="1" as="geometry" />
        </mxCell>
        <mxCell id="qFURexR1lP0LFmoi_BA6-7" value="&lt;font style=&quot;font-size: 14px;&quot;&gt;发送公告&lt;/font&gt;" style="rounded=1;whiteSpace=wrap;html=1;" vertex="1" parent="1">
          <mxGeometry x="540" y="400" width="90" height="50" as="geometry" />
        </mxCell>
        <mxCell id="qFURexR1lP0LFmoi_BA6-11" value="" style="ellipse;html=1;shape=endState;fillColor=strokeColor;" vertex="1" parent="1">
          <mxGeometry x="670" y="410" width="30" height="30" as="geometry" />
        </mxCell>
        <mxCell id="qFURexR1lP0LFmoi_BA6-13" value="&lt;font style=&quot;font-size: 14px;&quot;&gt;&lt;b&gt;开始&lt;/b&gt;&lt;/font&gt;" style="text;html=1;strokeColor=none;fillColor=none;align=center;verticalAlign=middle;whiteSpace=wrap;rounded=0;" vertex="1" parent="1">
          <mxGeometry x="40" y="450" width="60" height="30" as="geometry" />
        </mxCell>
        <mxCell id="qFURexR1lP0LFmoi_BA6-15" value="&lt;font style=&quot;font-size: 14px;&quot;&gt;&lt;b&gt;结束&lt;/b&gt;&lt;/font&gt;" style="text;html=1;strokeColor=none;fillColor=none;align=center;verticalAlign=middle;whiteSpace=wrap;rounded=0;" vertex="1" parent="1">
          <mxGeometry x="655" y="450" width="60" height="30" as="geometry" />
        </mxCell>
      </root>
    </mxGraphModel>
  </diagram>
</mxfile>
